Fly_normalized_Motion_pl02
version=1
nRows=16
nColumns=43
inDegrees=yes
endheader
time		pelvis_tilt		pelvis_list		pelvis_rotation		pelvis_tx		pelvis_ty		pelvis_tz		hip_flexion_r		hip_adduction_r		hip_rotation_r		knee_angle_r		ankle_angle_r		subtalar_angle_r		mtp_angle_r		hip_flexion_l		hip_adduction_l		hip_rotation_l		knee_angle_l		ankle_angle_l		subtalar_angle_l		mtp_angle_l		lumbar_extension		lumbar_bending		lumbar_rotation		neck_flexion		neck_lateral_bending		neck_rotation		arm_flex_r		arm_add_r		arm_rot_r		elbow_flex_r		pro_sup_r		wrist_flex_r		wrist_dev_r		hand_finger_flex_r		arm_flex_l		arm_add_l		arm_rot_l		elbow_flex_l		pro_sup_l		wrist_flex_l		wrist_dev_l		hand_finger_flex_l		
0.538333		0.847839		3.895867		85.621352		0.041106		1.530154		0.959898		35.583648		-1.924273		-1.287713		-50.195342		-21.484090		-2.990924		-3.243245		38.517292		-10.165073		-7.782402		-36.758549		-31.036696		4.629876		15.522137		-49.630913		0.219333		3.125405		13.713952		0.529371		-0.548203		-3.657806		-36.415848		-14.573233		48.961273		126.143957		22.910998		-0.545622		-18.494766		1.373173		-35.696650		0.920499		51.341052		125.494654		-14.231830		-5.439565		-8.347572		
0.542626		0.877127		4.136030		85.695452		0.040451		1.517566		0.949428		34.826078		-1.999407		-1.616386		-48.638464		-21.567540		-2.685262		-3.380298		37.811198		-10.200774		-8.229840		-36.130521		-31.287634		4.870551		15.213701		-49.192975		0.356587		3.006670		12.559018		0.525788		-0.415324		-6.890719		-36.571650		-15.659059		48.776194		125.902274		22.861538		-0.877293		-18.452588		-1.711209		-35.555338		0.338129		51.084057		125.293513		-14.515370		-5.483550		-8.702677		
0.546919		0.939410		4.309677		85.789645		0.039659		1.504664		0.938935		34.136047		-2.068869		-2.028099		-47.097272		-21.682408		-2.370644		-3.489581		37.101185		-10.228814		-8.629982		-35.355196		-31.497228		5.075128		14.966544		-48.661454		0.563720		2.817273		11.336872		0.550533		-0.304104		-10.051558		-36.714643		-16.659468		48.664632		125.649459		22.805469		-1.198017		-18.426112		-4.854163		-35.405039		-0.154494		50.801108		125.133654		-14.790479		-5.565038		-9.050180		
0.551212		1.055795		4.617659		86.019207		0.038864		1.491942		0.928340		33.162224		-2.169226		-2.617488		-45.402758		-21.654364		-1.879644		-3.622601		36.263274		-10.212361		-8.833410		-34.562227		-31.600856		5.378463		14.592688		-48.322287		0.881399		2.660315		10.388384		0.485348		-0.191679		-13.376876		-36.649952		-18.036412		48.675434		125.418757		22.672719		-1.537891		-18.346125		-7.888285		-35.089450		-0.887690		50.530901		125.002366		-15.020066		-5.740614		-9.747743		
0.555505		1.098256		4.805072		86.185774		0.038016		1.478597		0.917730		32.403957		-2.297895		-3.144963		-43.816238		-21.793530		-1.527805		-3.709539		35.565053		-10.177598		-9.136637		-33.804195		-31.827975		5.566082		14.386023		-47.752510		1.121386		2.475191		9.024682		0.427149		-0.076894		-16.653941		-36.670867		-19.098936		48.654695		125.192144		22.537167		-1.881236		-18.336818		-10.951429		-34.782264		-1.424537		50.295507		124.901768		-15.432704		-5.852985		-10.353912		
0.559798		1.173287		5.057981		86.400721		0.037302		1.465297		0.906993		31.479480		-2.416305		-3.793526		-42.120053		-21.887035		-1.060770		-3.796542		34.750121		-10.144341		-9.369691		-32.955841		-31.953923		5.789470		14.143857		-47.280521		1.401674		2.312836		7.815730		0.301600		0.017002		-19.997383		-36.534026		-20.328478		48.752011		125.038223		22.340043		-2.220835		-18.305734		-13.945720		-34.434224		-1.967073		50.057579		124.894985		-15.790690		-6.028976		-11.275230		
0.564091		1.200460		5.315792		86.494755		0.036650		1.451804		0.896115		30.556453		-2.525731		-4.364003		-40.415203		-22.020778		-0.580007		-3.868000		33.866582		-10.130985		-9.742275		-32.069995		-32.033625		6.037421		13.955434		-46.796160		1.584093		2.204031		6.576545		0.123529		0.162633		-23.374882		-36.317745		-21.593914		48.923020		124.904978		22.018978		-2.617294		-18.376261		-16.896081		-33.967623		-2.536701		49.819754		124.893773		-16.258410		-6.133034		-12.349588		
0.568384		1.192497		5.629223		86.478140		0.036160		1.438273		0.885078		29.562256		-2.616349		-4.882713		-38.683482		-22.183921		-0.022864		-3.935165		32.840131		-10.147734		-10.288084		-31.118620		-32.028599		6.336464		13.815146		-46.362609		1.664307		2.161437		5.343889		-0.084873		0.335874		-26.776792		-36.007714		-22.889011		49.163438		124.773630		21.618178		-3.034776		-18.575750		-19.783433		-33.443031		-3.087798		49.595317		124.903122		-16.749051		-6.211579		-13.496441		
0.572677		1.172676		6.244918		86.383236		0.035854		1.425250		0.873791		28.172146		-2.718999		-5.435552		-36.852724		-22.373319		0.689339		-4.001611		31.364003		-10.203576		-11.091106		-30.046288		-31.923755		6.792082		13.683804		-46.249127		1.660205		2.248449		4.095675		-0.319971		0.387590		-30.222215		-35.559627		-24.285870		49.493989		124.704349		21.346511		-3.417092		-18.958058		-22.550409		-33.034087		-3.424701		49.475685		125.050882		-16.866999		-6.374019		-15.248307		
0.576970		1.103291		6.234633		86.330010		0.035471		1.410646		0.862713		27.598209		-2.805458		-5.911589		-35.200914		-22.770082		1.003108		-4.079535		30.674377		-10.183730		-11.741276		-29.032157		-31.949253		6.881602		13.640982		-45.383368		1.659267		2.105904		2.484956		-0.426214		0.659755		-33.363216		-35.172560		-25.298723		49.634173		124.345730		21.096221		-3.858944		-19.194493		-25.529278		-32.415080		-4.033945		49.397881		124.815910		-17.449890		-6.333919		-15.808290		
0.581263		1.057243		6.352889		86.288487		0.035178		1.396278		0.851560		26.805490		-2.885865		-6.498330		-33.445379		-23.081890		1.515848		-4.119038		29.792484		-10.166579		-12.442046		-27.967610		-31.820884		7.117503		13.639990		-44.683974		1.666567		2.036400		1.048321		-0.540378		0.920513		-36.449804		-34.583070		-26.507326		49.812054		123.855274		20.780761		-4.279137		-19.504560		-28.422052		-31.801985		-4.628785		49.391604		124.615320		-18.037113		-6.396743		-16.405918		
0.585556		1.059822		6.717400		86.314858		0.034826		1.382300		0.840220		25.629236		-2.977347		-7.300492		-31.548524		-23.327805		2.184648		-4.058797		28.585722		-10.155371		-13.178766		-26.799990		-31.557056		7.519826		13.692822		-44.255362		1.747425		1.979481		-0.328173		-0.698771		1.109142		-39.449826		-33.816937		-27.920170		50.016883		123.182687		20.570529		-4.581603		-19.876863		-31.192937		-31.179015		-5.187599		49.429350		124.430451		-18.463087		-6.545020		-17.194890		
0.589848		1.110430		7.331581		86.422477		0.034362		1.368763		0.828687		24.055702		-3.066419		-8.311572		-29.504767		-23.528292		2.907440		-3.826989		27.043803		-10.123859		-13.940132		-25.507964		-31.189709		8.003352		13.811247		-44.099442		1.914452		1.906147		-1.637263		-0.900742		1.208801		-42.295145		-32.909210		-29.473385		50.227598		122.368756		20.541762		-4.707316		-20.363829		-33.837015		-30.549364		-5.717839		49.492229		124.250219		-18.598902		-6.738668		-18.393520		
0.594141		1.148473		7.679908		86.618376		0.033753		1.354424		0.817207		22.794977		-3.156429		-9.383423		-27.534538		-23.641744		3.679953		-3.556097		25.877248		-10.046511		-14.613796		-24.300108		-30.714170		8.411108		13.913677		-43.627449		2.128905		1.736694		-3.029203		-1.029010		1.382774		-44.905200		-31.824334		-31.232172		50.353924		121.559921		20.533039		-4.874705		-20.609968		-36.525081		-29.817462		-6.440423		49.656716		124.065046		-18.744967		-6.970594		-19.265030		
0.598434		1.122129		7.789203		86.739519		0.033261		1.339432		0.805861		21.873695		-3.211991		-10.260784		-25.664901		-23.748532		4.068587		-3.379165		24.992244		-9.916676		-15.301131		-23.106518		-30.303549		8.524960		13.967758		-42.872555		2.225766		1.583174		-4.572696		-1.089610		1.527705		-47.372307		-30.758543		-32.764918		50.444467		120.904490		20.417057		-5.129028		-20.806974		-39.199705		-29.081062		-7.140994		49.896046		123.888102		-19.062640		-7.150126		-19.929497		
0.602727		1.101491		7.878029		86.864515		0.032716		1.324226		0.794499		20.978240		-3.244553		-11.150216		-23.836913		-23.655366		4.553983		-3.211658		24.159785		-9.796732		-16.053008		-21.976610		-29.783007		8.706941		13.999148		-42.105116		2.325923		1.450509		-6.075692		-1.083534		1.658473		-49.647021		-29.518553		-34.542029		50.492786		120.157086		20.310144		-5.327266		-20.927200		-41.779584		-28.274218		-7.954355		50.183873		123.716048		-19.341744		-7.350623		-20.435062		
